<svg xmlns="http://www.w3.org/2000/svg" xmlns:xlink="http://www.w3.org/1999/xlink" viewBox="0 0 144.77 144.77"><defs><style>.cls-1{fill:none;}.cls-2{isolation:isolate;}.cls-3{fill:#8dc5d6;}.cls-4{clip-path:url(#clip-path);}.cls-5{fill:#2e576d;}.cls-6{fill:#f1c9a5;}.cls-7{fill:#e4b692;}.cls-8{fill:#ddac8c;opacity:0.1;mix-blend-mode:multiply;}.cls-9{fill:#fa582a;}</style><clipPath id="clip-path" transform="translate(-490.54 -1146.04)"><path class="cls-1" d="M635.32,1218.42a72.39,72.39,0,1,0-72.39,72.39A72.38,72.38,0,0,0,635.32,1218.42Z"/></clipPath></defs><title>Untitled-1</title><g class="cls-2"><g id="Layer_1" data-name="Layer 1"><path class="cls-3" d="M635.32,1218.42a72.39,72.39,0,1,0-72.39,72.39A72.38,72.38,0,0,0,635.32,1218.42Z" transform="translate(-490.54 -1146.04)"/><g class="cls-4"><path class="cls-5" d="M535.78,1221.09c0,11.81-6.48,12.12-6,19.93.51,8.66,7.28,8.68,7.28,14.64s-6.22,12.62-.71,19h26.61v-72.21Z" transform="translate(-490.54 -1146.04)"/><path class="cls-5" d="M590.08,1220.7c0,11.81,6.48,12.11,6,19.93-.51,8.66-7.28,8.68-7.28,14.63s6.22,12.63.71,19H562.92v-72.21Z" transform="translate(-490.54 -1146.04)"/><ellipse class="cls-5" cx="72.39" cy="62.72" rx="29.63" ry="29.83"/><path class="cls-6" d="M597.6,1263c-4.67-8.84-34.67-14.38-34.67-14.38s-30,5.54-34.67,14.38c-3.44,12.25-6.33,27.83-6.33,27.83h82S602,1274.11,597.6,1263Z" transform="translate(-490.54 -1146.04)"/><path class="cls-7" d="M562.93,1248.6s30,5.54,34.67,14.38c4.38,11.13,6.33,27.83,6.33,27.83h-41Z" transform="translate(-490.54 -1146.04)"/><rect class="cls-6" x="64.22" y="84.61" width="16.33" height="27.34"/><rect class="cls-7" x="72.39" y="84.61" width="8.17" height="27.34"/><path class="cls-8" d="M554.76,1243.31c1.47,4.22,7.4,6.63,11.75,6.63a14.8,14.8,0,0,0,4.59-.74v-18.56H554.76Z" transform="translate(-490.54 -1146.04)"/><path class="cls-6" d="M583.93,1213.39c0-17.07-9.4-26.78-21-26.78s-21,9.71-21,26.78,9.4,30.92,21,30.92S583.93,1230.47,583.93,1213.39Z" transform="translate(-490.54 -1146.04)"/><path class="cls-7" d="M580.73,1225.23c-3.8-.42-6.37-4.78-5.73-9.73s4.24-8.63,8-8.21,6.37,4.78,5.73,9.73S584.54,1225.65,580.73,1225.23Z" transform="translate(-490.54 -1146.04)"/><path class="cls-6" d="M537.23,1217c-.64-5,1.92-9.31,5.73-9.73s7.41,3.26,8,8.21-1.93,9.31-5.73,9.73S537.87,1222,537.23,1217Z" transform="translate(-490.54 -1146.04)"/><path class="cls-7" d="M583.93,1213.39c0-17.07-9.4-26.78-21-26.78v57.7C574.53,1244.31,583.93,1230.47,583.93,1213.39Z" transform="translate(-490.54 -1146.04)"/><path class="cls-5" d="M585.66,1211.47c0-.06,0-.1,0-.15,0-13.25-9-27.23-21.52-27.23s-23.93,14-23.93,27.23v.15Z" transform="translate(-490.54 -1146.04)"/><path class="cls-9" d="M603.93,1290.81s-1.95-16.7-6.33-27.83c-2.56-4.85-12.74-8.7-21.41-11.19l-13.29,10.43L549.07,1252c-8.53,2.5-18.31,6.28-20.81,11-3.44,12.25-6.33,27.83-6.33,27.83h82Z" transform="translate(-490.54 -1146.04)"/></g></g></g></svg>