<?xml version="1.0" encoding="utf-8"?>
<!-- Generator: Adobe Illustrator 23.0.4, SVG Export Plug-In . SVG Version: 6.00 Build 0)  -->
<svg version="1.1" id="Layer_1" xmlns="http://www.w3.org/2000/svg" xmlns:xlink="http://www.w3.org/1999/xlink" x="0px" y="0px"
	 viewBox="0 0 2592 1728" style="enable-background:new 0 0 2592 1728;" xml:space="preserve">
<style type="text/css">
	.st0{fill:#FBDB32;stroke:#FADA32;}
	.st1{fill:#D47394;}
	.st2{stroke:#FADA32;}
</style>
<g>
	<path class="st0" d="M1814.23,1336c30.24-42.9,55.49-88.8,75.42-136.82c35.69-85.99,54.35-178.75,54.2-273.09
		c-0.28-393.59-319.24-712.6-712.83-712.94c-159.06,0-305.94,52.09-424.53,140.15C669.43,480.41,583.65,662.05,583.65,863.72
		c0,384.39,311.61,695.99,695.99,695.99c110.97,0.09,220.34-26.39,318.98-77.22c4.28-2.21,8.79-3.94,13.46-5.17l22.15-5.82
		c17.81-4.68,36.76-1.67,52.24,8.3l11.88,7.65c22.76,10.34,46.91,17.29,71.69,20.62c20.25,3.09,40.58,5.52,60.98,7.3
		c10.08,0.88,20.17,1.6,30.28,2.17c26.22,1.27,60.71,0.17,86.61-2.85c-32.4-22.7-87.67-73.73-109.61-112.62l-18.02-37.36
		C1816.1,1355.65,1814.06,1345.84,1814.23,1336z"/>
	<path d="M1115.46,595.49c2.33-22.68-4.65-41.36-24.57-53.56c-42.45-23.15-97.21,0.67-91.77,53.56c0,26.59,0,53.18,0,79.78
		c-5.44,52.89,49.31,76.71,91.77,53.56c19.92-12.2,26.91-30.88,24.57-53.56C1115.46,648.67,1115.46,622.08,1115.46,595.49z"/>
	<path d="M1561.25,595.49c2.33-22.68-4.65-41.36-24.57-53.56c-42.45-23.15-97.21,0.67-91.77,53.56c0,26.59,0,53.18,0,79.78
		c-5.44,52.89,49.31,76.71,91.77,53.56c19.92-12.2,26.91-30.88,24.57-53.56C1561.25,648.67,1561.25,622.08,1561.25,595.49z"/>
	<path class="st1" d="M1208.99,963.16c20.93,10.26,44.46,16.03,69.34,16.03c24.88,0,48.42-5.76,69.34-16.03
		c-7.95-30.88-35.98-53.69-69.34-53.69S1216.94,932.28,1208.99,963.16z"/>
	<path d="M1208.99,963.16c7.95-30.88,35.98-53.69,69.34-53.69s61.39,22.81,69.34,53.69c52.31-25.66,88.32-79.44,88.33-141.63
		h-315.34C1120.67,883.72,1156.68,937.5,1208.99,963.16z"/>
	<path class="st2" d="M1806.38,406.63c106.67,122.29,171.32,282.19,171.44,457.19c0.24,154.45-51.14,304.55-145.99,426.45
		c-6.7,9.39-11.33,20.09-13.58,31.4c-3.49,14.4-2,29.56,4.21,43.02l18.02,37.36c21.94,38.89,77.21,89.92,109.61,112.62
		c-25.9,3.02-60.39,4.12-86.61,2.85c-30.55-1.7-61.01-4.86-91.26-9.47c-24.78-3.33-48.93-10.28-71.69-20.62l-11.88-7.65
		c-15.48-9.96-34.44-12.97-52.24-8.3l-22.15,5.82c-4.66,1.22-9.17,2.96-13.46,5.17c-98.64,50.83-208.02,77.31-318.98,77.22
		c-384.39,0-695.99-311.61-695.99-695.99s311.61-695.99,695.99-695.99c70.37,0.06,138.3,10.55,202.33,30.02
		c55.13,6.41,53.29-53.7,24.46-61.39c-71.64-22.31-147.81-34.33-226.79-34.33c-420.67,0-761.69,341.02-761.69,761.69
		s341.02,761.69,761.69,761.69c125.84,0,244.54-30.51,349.13-84.55c8.43-2.62,15.3-4.63,22.15-5.82c4.97,3.65,10.21,7,15.67,10.08
		c71.44,40.26,322.94,61.76,389.63-0.42c19.68-12.77,25.01-30.93-17.73-55.67c-5.78-3.34-12.39-6.71-19.86-10.07
		c-27.86-12.53-29.08-15.21-53.02-34.49c-24.75-19.94-47.16-40.57-72.29-78.33c-4-8.6-8.44-18.2-13.41-29.02
		c0.49-2.14,1.02-4.31,1.58-6.52c100.18-128.95,159.84-290.96,159.84-466.9c0-196.86-74.68-376.28-197.26-511.47
		C1809.05,320.24,1760.11,361.9,1806.38,406.63z"/>
	<path class="st2" d="M1711.53,234.71c-19.24-13.17-39.11-25.47-59.56-36.86c-33.9-18.88-56.81,43.9-33.7,56.7
		c17.65,9.78,34.84,20.3,51.51,31.52C1703.29,308.63,1747.77,259.52,1711.53,234.71z"/>
</g>
</svg>
